<svg width="13" height="15" viewBox="0 0 13 15" fill="none" xmlns="http://www.w3.org/2000/svg">
<path d="M12.6917 7.5C12.6922 7.69588 12.642 7.88854 12.5459 8.05926C12.4499 8.22998 12.3113 8.37293 12.1436 8.47423L1.75376 14.8302C1.57859 14.9374 1.37796 14.996 1.1726 14.9998C0.967229 15.0036 0.76457 14.9525 0.585549 14.8518C0.408233 14.7527 0.260523 14.6081 0.157611 14.4329C0.0546979 14.2578 0.000296278 14.0584 0 13.8552V1.14478C0.000296278 0.941626 0.0546979 0.742221 0.157611 0.567067C0.260523 0.391912 0.408233 0.247331 0.585549 0.148189C0.76457 0.047484 0.967229 -0.00360526 1.1726 0.000197836C1.37796 0.00400093 1.57859 0.0625586 1.75376 0.169823L12.1436 6.52577C12.3113 6.62707 12.4499 6.77002 12.5459 6.94074C12.642 7.11146 12.6922 7.30412 12.6917 7.5Z" fill="#1A1A1A"/>
</svg>
